<svg width="26" height="21" viewBox="0 0 26 21" fill="none" xmlns="http://www.w3.org/2000/svg">
<rect width="26" height="21" fill="#F5F5F5"/>
<rect width="1440" height="1024" transform="translate(-170 -627)" fill="white"/>
<rect x="-99" y="-14" width="151" height="49" rx="9" fill="white" stroke="#3D3C3C" stroke-width="2"/>
<path d="M10.2307 6.07324H15.7692" stroke="#3D3C3C" stroke-width="1.5" stroke-linecap="round" stroke-linejoin="round"/>
<path d="M24.7231 13.2617L19.6808 1.80399C19.1602 1.28891 18.4574 1 17.7251 1C16.9927 1 16.2899 1.28891 15.7693 1.80399V14.8425" stroke="#3D3C3C" stroke-width="1.5" stroke-linecap="round" stroke-linejoin="round"/>
<path d="M10.2307 14.8425V1.80399C9.71009 1.28891 9.00729 1 8.27493 1C7.54257 1 6.83978 1.28891 6.31916 1.80399L1.27686 13.2617" stroke="#3D3C3C" stroke-width="1.5" stroke-linecap="round" stroke-linejoin="round"/>
<path d="M5.61538 19.4578C8.16439 19.4578 10.2308 17.3914 10.2308 14.8424C10.2308 12.2934 8.16439 10.2271 5.61538 10.2271C3.06638 10.2271 1 12.2934 1 14.8424C1 17.3914 3.06638 19.4578 5.61538 19.4578Z" stroke="#3D3C3C" stroke-width="1.5" stroke-linecap="round" stroke-linejoin="round"/>
<path d="M20.3847 19.4578C22.9337 19.4578 25.0001 17.3914 25.0001 14.8424C25.0001 12.2934 22.9337 10.2271 20.3847 10.2271C17.8357 10.2271 15.7693 12.2934 15.7693 14.8424C15.7693 17.3914 17.8357 19.4578 20.3847 19.4578Z" stroke="#3D3C3C" stroke-width="1.5" stroke-linecap="round" stroke-linejoin="round"/>
</svg>
