<svg width="19" height="17" viewBox="0 0 19 17" fill="none" xmlns="http://www.w3.org/2000/svg">
<path d="M17.46 8.96002C18.41 8.00002 19 6.70002 19 5.25002C19 3.85763 18.4469 2.52227 17.4623 1.53771C16.4777 0.553141 15.1424 1.8052e-05 13.75 1.8052e-05C12 1.8052e-05 10.45 0.850018 9.5 2.17002C9.0151 1.49652 8.37661 0.948336 7.63748 0.570946C6.89835 0.193557 6.0799 -0.00216431 5.25 1.8052e-05C3.85761 1.8052e-05 2.52226 0.553141 1.53769 1.53771C0.553123 2.52227 0 3.85763 0 5.25002C0 6.70002 0.59 8.00002 1.54 8.96002L9.5 16.92L17.46 8.96002Z" fill="#FF0000"/>
</svg>
