<svg width="21" height="21" viewBox="0 0 21 21" fill="none" xmlns="http://www.w3.org/2000/svg">
<path d="M15.5151 0.504108C15.8381 0.181321 16.2761 0 16.7327 0C17.1894 0 17.6274 0.181321 17.9504 0.504108L20.4959 3.04962C20.8187 3.37263 21 3.8106 21 4.26725C21 4.7239 20.8187 5.16187 20.4959 5.48488L17.7466 8.23415L17.7348 8.24695L7.07635 18.4201C6.88163 18.6063 6.64597 18.7442 6.38829 18.8227L0.951768 20.4764C0.823926 20.515 0.688028 20.5181 0.558544 20.4855C0.429059 20.4529 0.310836 20.3858 0.216464 20.2914C0.122007 20.197 0.0549131 20.0788 0.0223253 19.9493C-0.0102625 19.8198 -0.00712356 19.6839 0.0314079 19.5561L1.67821 14.1422C1.76458 13.8588 1.92257 13.6025 2.13692 13.398L12.7718 3.24649L15.5151 0.504108ZM3.1567 14.466C3.12626 14.4955 3.1036 14.532 3.09074 14.5723L1.84654 18.6613L5.95814 17.4102C5.99505 17.3988 6.02877 17.3789 6.05657 17.3521L16.1687 7.69965L13.2748 4.80667L3.1567 14.466ZM17.2249 6.66905L19.4525 4.44246C19.4754 4.4196 19.4936 4.39245 19.506 4.36255C19.5184 4.33265 19.5248 4.3006 19.5248 4.26823C19.5248 4.23587 19.5184 4.20381 19.506 4.17392C19.4936 4.14402 19.4754 4.11686 19.4525 4.09401L16.907 1.5485C16.8841 1.52558 16.857 1.5074 16.8271 1.49499C16.7972 1.48258 16.7651 1.4762 16.7327 1.4762C16.7004 1.4762 16.6683 1.48258 16.6384 1.49499C16.6085 1.5074 16.5814 1.52558 16.5585 1.5485L14.3319 3.77508L17.2249 6.66905Z" fill="#7D7D7D"/>
</svg>
