<svg width="24" height="27" viewBox="0 0 24 27" fill="none" xmlns="http://www.w3.org/2000/svg">
<path d="M3.66451 10.0026V15.8374C3.66451 15.9535 3.64051 16.0681 3.59316 16.1742L1.75669 20.3386H22.2446L20.4068 16.1742C20.3601 16.0681 20.336 15.9534 20.3362 15.8374V10.0026C20.3362 5.39873 16.6045 1.6671 12.0007 1.6671C7.39681 1.6671 3.66451 5.39873 3.66451 10.0026ZM7.99897 22.0057H1.49995C1.25037 22.0056 1.00474 21.9433 0.785327 21.8243C0.565909 21.7054 0.37963 21.5336 0.243363 21.3245C0.107095 21.1154 0.0251426 20.8756 0.00492908 20.6268C-0.0152845 20.378 0.0268791 20.1282 0.127601 19.8998L1.99742 15.662V10.0026C1.99742 4.47849 6.47591 0 12 0C17.5241 0 22.0026 4.47849 22.0026 10.0026V15.662L23.8724 19.8998C23.9731 20.1282 24.0153 20.378 23.9951 20.6268C23.9749 20.8756 23.8929 21.1154 23.7566 21.3245C23.6204 21.5336 23.4341 21.7054 23.2147 21.8243C22.9953 21.9433 22.7496 22.0056 22.5 22.0057H16.001V22.6725C16.001 23.7337 15.5795 24.7513 14.8292 25.5017C14.0788 26.252 13.0611 26.6736 12 26.6736C10.9389 26.6736 9.92118 26.252 9.17084 25.5017C8.4205 24.7513 7.99897 23.7337 7.99897 22.6725V22.0057ZM14.3339 22.0057H9.66606V22.6725C9.66606 23.2915 9.91196 23.8852 10.3497 24.3229C10.7874 24.7606 11.381 25.0065 12 25.0065C12.619 25.0065 13.2126 24.7606 13.6503 24.3229C14.088 23.8852 14.3339 23.2915 14.3339 22.6725V22.0057Z" fill="black"/>
</svg>
