<svg width="27" height="27" viewBox="0 0 27 27" fill="none" xmlns="http://www.w3.org/2000/svg">
<path d="M13.6665 1.6665C7.0389 1.6665 1.6665 7.0389 1.6665 13.6665C1.6665 20.2941 7.0389 25.6665 13.6665 25.6665C20.2941 25.6665 25.6665 20.2941 25.6665 13.6665C25.6665 7.0389 20.2941 1.6665 13.6665 1.6665Z" stroke="black" stroke-width="1.5" stroke-linecap="round" stroke-linejoin="round"/>
<path d="M4.3916 21.282C4.3916 21.282 7.0664 17.8668 13.6664 17.8668C20.2664 17.8668 22.9424 21.282 22.9424 21.282M13.6664 13.6668C14.6212 13.6668 15.5369 13.2875 16.212 12.6124C16.8871 11.9373 17.2664 11.0216 17.2664 10.0668C17.2664 9.11202 16.8871 8.19634 16.212 7.52121C15.5369 6.84608 14.6212 6.4668 13.6664 6.4668C12.7116 6.4668 11.7959 6.84608 11.1208 7.52121C10.4457 8.19634 10.0664 9.11202 10.0664 10.0668C10.0664 11.0216 10.4457 11.9373 11.1208 12.6124C11.7959 13.2875 12.7116 13.6668 13.6664 13.6668Z" stroke="black" stroke-width="1.5" stroke-linecap="round" stroke-linejoin="round"/>
</svg>
