<svg width="16" height="15" viewBox="0 0 16 15" fill="none" xmlns="http://www.w3.org/2000/svg">
<path d="M1 5.3C1 4.452 1 3.845 1.04 3.37C1.078 2.901 1.15 2.604 1.272 2.365L0.382 1.911C0.176 2.314 0.0859998 2.758 0.0419998 3.289C-1.82539e-07 3.814 0 4.469 0 5.3H1ZM1 6.5V5.3H0V6.5H1ZM0 6.5V11.5H1V6.5H0ZM0 11.5V13.414H1V11.5H0ZM0 13.414C0 14.26 1.023 14.684 1.622 14.085L0.915 13.378C0.923604 13.3722 0.93305 13.3679 0.943 13.365L0.969 13.367C0.977301 13.3717 0.984354 13.3784 0.989572 13.3864C0.99479 13.3944 0.998022 13.4035 0.999 13.413L0 13.414ZM1.622 14.085L3.561 12.146L2.854 11.439L0.914 13.379L1.622 14.085ZM10.7 11H3.914V12H10.7V11ZM13.635 10.728C13.396 10.85 13.099 10.922 12.63 10.961C12.154 11 11.548 11 10.7 11V12C11.532 12 12.186 12 12.711 11.957C13.242 11.914 13.686 11.824 14.089 11.619L13.635 10.728ZM14.727 9.635C14.4874 10.1051 14.1051 10.4884 13.635 10.728L14.089 11.619C14.7478 11.2834 15.2834 10.7478 15.619 10.089L14.727 9.635ZM15 6.7C15 7.548 15 8.155 14.96 8.63C14.922 9.099 14.85 9.396 14.727 9.635L15.619 10.089C15.824 9.686 15.914 9.242 15.957 8.711C16 8.186 16 7.531 16 6.7H15ZM15 5.3V6.7H16V5.3H15ZM14.727 2.365C14.849 2.604 14.922 2.901 14.961 3.37C15 3.845 15 4.452 15 5.3H16C16 4.468 16 3.814 15.957 3.289C15.914 2.758 15.824 2.314 15.619 1.911L14.727 2.365ZM13.635 1.272C14.1053 1.51189 14.4875 1.89451 14.727 2.365L15.619 1.911C15.2834 1.2522 14.7478 0.716597 14.089 0.381L13.635 1.272ZM10.7 1C11.548 1 12.154 1 12.63 1.04C13.099 1.078 13.396 1.15 13.635 1.272L14.089 0.381C13.686 0.175 13.242 0.0859998 12.711 0.0419998C12.186 -1.82539e-07 11.531 0 10.7 0V1ZM5.3 1H10.7V0H5.3V1ZM2.365 1.272C2.604 1.151 2.901 1.078 3.37 1.039C3.845 1 4.452 1 5.3 1V0C4.468 0 3.814 2.19792e-07 3.289 0.0430002C2.758 0.0860002 2.314 0.176 1.911 0.381L2.365 1.272ZM1.272 2.365C1.51172 1.89435 1.89435 1.51172 2.365 1.272L1.911 0.381C1.25235 0.716336 0.717767 1.25257 0.382 1.911L1.272 2.365ZM3.561 12.146C3.65471 12.0525 3.78165 12 3.914 12V11C3.51631 11.0003 3.13503 11.1586 2.854 11.44L3.561 12.146Z" fill="black"/>
<path d="M4.5 4.5H11.5M4.5 7.5H9.5" stroke="black" stroke-linecap="round" stroke-linejoin="round"/>
</svg>
